# xmcd
#
# Track frame offsets: 
#        187
#        20415
#        42642
#        61570
#        84962
#        105392
#        123657
#        139047
#        158972
#        172622
#        191495
#        211825
#        229725
#        250512
#        271060
#        293862
#
# Disc length: 4206 seconds
#
# Revision: 0
# Processed by: cddbd v1.5.2PL0 Copyright (c) Steve Scherf et al.
# Submitted via: ExactAudioCopy v0.99pb5
#
DISCID=ca106c10
DTITLE=л┴лч-д¤лшлєл╘лы - ц¤╩░
DYEAR=1991
DGENRE=JPop
TTITLE0=к╜кьк╛кьк╬▌┴╧╨
TTITLE1=ё╨к╚╫ик╚╤√к╚╥│
TTITLE2=у¤л▄лэл▄лэ
TTITLE3=ркф╘╒№°ж
TTITLE4=ї╠¤нк╬э▐╪№
TTITLE5=▌шк╖кд▀фкфк═
TTITLE6=єык╬штк╬╥│
TTITLE7=▀╠кдїє┌╗эн
TTITLE8=▌╝▀г∙√к╪╧¤кь
TTITLE9=у┴к╬╫╡кьк╦уєкЄк▐клк╗
TTITLE10=к│к│кэт╓
TTITLE11=╪╬кьк╩їо
TTITLE12=╒щ╓╪к╬═¤к╞к╦
TTITLE13=╫ик╬уєкмкякъ
TTITLE14=╦ы█╩
TTITLE15=▀╠кдїє┌╗эн-2
EXTD=
EXTT0=
EXTT1=
EXTT2=
EXTT3=
EXTT4=
EXTT5=
EXTT6=
EXTT7=
EXTT8=
EXTT9=
EXTT10=
EXTT11=
EXTT12=
EXTT13=
EXTT14=
EXTT15=
PLAYORDER=
